# xmcd CD database file
#
# Track frame offsets:
#	150
#	16702
#	33112
#	56550
#	78795
#	99655
#	119812
#	135867
#	162535
#	183032
#
# Disc length: 2659 seconds
#
# Revision: 0
# Processed by: cddbd v1.4PL0 Copyright (c) Steve Scherf et al.
# Submitted via: Feurio! 1.65 - http://www.feurio.com
#
DISCID=700a610a
DTITLE=Kieran White - Open Door
DYEAR=1975
DGENRE=blues
TTITLE0=Open Up Your Door
TTITLE1=Cajun Moon
TTITLE2=Cold City Night
TTITLE3=I May Be Wrong
TTITLE4=Lay Your Love Down
TTITLE5=Cadillac
TTITLE6=Stone Ground
TTITLE7=Janie
TTITLE8=Dark Star
TTITLE9=Cargo County
EXTD=ARD Repertoire Records REP 4361 1975 Gull Records
EXTT0=
EXTT1=
EXTT2=
EXTT3=
EXTT4=
EXTT5=
EXTT6=
EXTT7=
EXTT8=
EXTT9=
PLAYORDER=
